<?xml version="1.0"?>
<svg xmlns="http://www.w3.org/2000/svg" height="512px" viewBox="0 -55 512.001 512" width="512px" class=""><g><path d="m503.023438 266.914062-22.546876-9.882812-206.402343 90.480469c-5.730469 2.511719-11.808594 3.785156-18.066407 3.785156-6.257812 0-12.335937-1.273437-18.0625-3.78125l-206.417968-90.484375-22.550782 9.882812c-5.453124 2.390626-8.976562 7.785157-8.976562 13.738282 0 5.957031 3.523438 11.347656 8.976562 13.738281l241.007813 105.648437c1.921875.839844 3.972656 1.261719 6.023437 1.261719 2.050782 0 4.105469-.421875 6.023438-1.261719l240.992188-105.648437c5.453124-2.390625 8.976562-7.78125 8.976562-13.738281 0-5.953125-3.523438-11.347656-8.976562-13.738282zm0 0" data-original="#000000" class="active-path" data-old_color="#BBBABA" fill="#858585"/><path d="m503.023438 186.910156-22.546876-9.882812-206.402343 90.480468c-5.730469 2.515626-11.808594 3.789063-18.066407 3.789063-6.257812 0-12.335937-1.273437-18.0625-3.785156l-206.417968-90.484375-22.550782 9.886718c-5.453124 2.390626-8.976562 7.78125-8.976562 13.738282 0 5.953125 3.523438 11.34375 8.976562 13.738281l241.007813 105.644531c1.921875.84375 3.972656 1.261719 6.023437 1.261719 2.050782 0 4.105469-.417969 6.023438-1.261719l240.992188-105.644531c5.453124-2.394531 8.976562-7.785156 8.976562-13.738281 0-5.957032-3.523438-11.347656-8.976562-13.742188zm0 0" data-original="#000000" class="active-path" data-old_color="#BBBABA" fill="#858585"/><path d="m8.976562 134.386719 241.007813 105.648437c1.921875.839844 3.972656 1.261719 6.023437 1.261719 2.050782 0 4.105469-.421875 6.023438-1.261719l240.992188-105.648437c5.453124-2.390625 8.976562-7.785157 8.976562-13.738281 0-5.957032-3.523438-11.347657-8.976562-13.738282l-241.007813-105.648437c-3.839844-1.683594-8.207031-1.679688-12.046875 0l-240.992188 105.648437c-5.453124 2.390625-8.976562 7.78125-8.976562 13.738282 0 5.957031 3.523438 11.347656 8.976562 13.738281zm0 0" data-original="#000000" class="active-path" data-old_color="#BBBABA" fill="#858585"/></g> </svg>
