<?xml version="1.0"?>
<svg xmlns="http://www.w3.org/2000/svg" height="512px" viewBox="-16 0 480 480" width="512px" class=""><g><path d="m371.398438 288c3.941406 0 7.292968-2.867188 7.90625-6.761719l12.605468-80c.363282-2.308593-.300781-4.660156-1.824218-6.4375-1.519532-1.777343-3.738282-2.800781-6.078126-2.800781h-16v-64c0-3.199219-1.90625-6.089844-4.847656-7.351562l-56-24-6.304687 14.703124 51.152343 21.921876v58.726562h-48v-32c-.027343-22.082031-17.917968-39.972656-40-40h-80c-22.082031.027344-39.972656 17.917969-40 40v32h-80c-2.339843 0-4.558593 1.023438-6.078124 2.800781-1.523438 1.777344-2.1875 4.128907-1.824219 6.4375l12.605469 80c.613281 3.894531 3.964843 6.761719 7.90625 6.761719h83.390624v184c0 4.417969 3.582032 8 8 8h112c4.417969 0 8-3.582031 8-8v-184zm-83.390626-128v32h-44.367187l-2.703125-24.160156c3.285156-.351563 6.007812-2.703125 6.832031-5.902344l6.484375-25.9375h9.753906c13.253907 0 24 10.746094 24 24zm-64.847656 8h1.695313l2.6875 24h-7.070313zm14.601563-32-4 16h-19.507813l-4-16zm-77.753907 24c0-13.253906 10.746094-24 24-24h9.753907l6.484375 25.9375c.824218 3.199219 3.546875 5.550781 6.832031 5.902344l-2.703125 24.160156h-44.367188zm-86.640624 48h301.28125l-10.089844 64h-281.101563zm198.640624 256h-96v-176h96zm0 0" data-original="#000000" class="active-path" data-old_color="#ffffff" fill="#ffffff"/><path d="m184.007812 46.527344v41.472656c0 13.253906 10.746094 24 24 24h32c13.253907 0 24-10.746094 24-24v-40h8c4.417969 0 8-3.582031 8-8v-16c0-13.253906-10.746093-24-24-24h-80c-4.417968 0-8 3.582031-8 8v16c.042969 10.132812 6.445313 19.148438 16 22.527344zm64 41.472656c0 4.417969-3.582031 8-8 8h-32c-4.417968 0-8-3.582031-8-8v-40h48zm-64-72h72c4.417969 0 8 3.582031 8 8v8h-72c-4.417968 0-8-3.582031-8-8zm0 0" data-original="#000000" class="active-path" data-old_color="#ffffff" fill="#ffffff"/><path d="m77.28125 321.976562c-3.019531-2.644531-7.527344-2.644531-10.546875 0l-64 56c-2.511719 2.195313-3.394531 5.714844-2.222656 8.839844 1.171875 3.121094 4.160156 5.1875 7.496093 5.183594h16v64c0 4.417969 3.582032 8 8 8h80c4.417969 0 8-3.582031 8-8v-64h16c3.335938.003906 6.324219-2.0625 7.496094-5.183594 1.171875-3.125.289063-6.644531-2.222656-8.839844zm34.726562 54.023438c-4.417968 0-8 3.582031-8 8v64h-64v-64c0-4.417969-3.582031-8-8-8h-2.703124l42.703124-37.367188 42.703126 37.367188zm0 0" data-original="#000000" class="active-path" data-old_color="#ffffff" fill="#ffffff"/><path d="m445.28125 377.976562-64-56c-3.019531-2.644531-7.527344-2.644531-10.546875 0l-64 56c-2.511719 2.195313-3.394531 5.714844-2.222656 8.839844 1.171875 3.121094 4.160156 5.1875 7.496093 5.183594h16v64c0 4.417969 3.582032 8 8 8h80c4.417969 0 8-3.582031 8-8v-64h16c3.335938.003906 6.324219-2.0625 7.496094-5.183594 1.171875-3.125.289063-6.644531-2.222656-8.839844zm-29.273438-1.976562c-4.417968 0-8 3.582031-8 8v64h-64v-64c0-4.417969-3.582031-8-8-8h-2.703124l42.703124-37.367188 42.703126 37.367188zm0 0" data-original="#000000" class="active-path" data-old_color="#ffffff" fill="#ffffff"/></g> </svg>
